<?xml version="1.0" standalone="no"?>
<!DOCTYPE svg PUBLIC "-//W3C//DTD SVG 20010904//EN"
 "http://www.w3.org/TR/2001/REC-SVG-20010904/DTD/svg10.dtd">
<svg version="1.0" xmlns="http://www.w3.org/2000/svg"
 width="512.000000pt" height="512.000000pt" viewBox="0 0 512.000000 512.000000"
 preserveAspectRatio="xMidYMid meet">
<metadata>
Created by potrace 1.14, written by Peter Selinger 2001-2017
</metadata>
<g transform="translate(0.000000,512.000000) scale(0.100000,-0.100000)"
fill="#000000" stroke="none">
<path d="M2495 5093 c-34 -33 -37 -49 -33 -227 l3 -158 28 -24 c38 -33 96 -33
134 0 l28 24 3 162 c4 183 -2 210 -53 234 -43 21 -79 17 -110 -11z"/>
<path d="M1708 4772 c-36 -19 -58 -53 -58 -94 0 -31 43 -83 167 -200 66 -64
87 -78 113 -78 75 0 124 68 96 134 -20 45 -215 234 -253 245 -24 7 -40 5 -65
-7z"/>
<path d="M3345 4779 c-33 -9 -254 -225 -256 -250 0 -8 -2 -21 -4 -30 -5 -27
25 -77 55 -89 59 -24 84 -11 201 105 61 61 115 120 120 133 30 77 -36 152
-116 131z"/>
<path d="M2455 4445 c-133 -27 -212 -69 -310 -169 -120 -122 -172 -262 -162
-436 12 -198 110 -360 279 -463 144 -87 331 -107 484 -53 171 60 294 181 361
354 23 58 27 82 27 187 1 187 -42 295 -170 422 -135 134 -327 194 -509 158z"/>
<path d="M1401 3972 c-66 -10 -102 -76 -76 -138 7 -18 24 -38 37 -45 32 -18
316 -20 357 -3 69 29 75 140 9 175 -21 11 -269 19 -327 11z"/>
<path d="M3395 3959 c-41 -23 -62 -78 -45 -120 24 -57 46 -63 221 -64 139 -1
162 1 188 17 28 18 49 58 45 86 -1 6 -2 19 -3 27 -2 24 -50 65 -79 66 -181 7
-299 3 -327 -12z"/>
<path d="M1778 3232 c-106 -104 -120 -122 -125 -158 -4 -35 -1 -45 23 -72 33
-36 78 -47 112 -28 43 23 242 227 243 249 4 54 -2 74 -31 100 -21 19 -41 27
-66 27 -32 0 -48 -12 -156 -118z"/>
<path d="M3145 3341 c-51 -21 -74 -83 -50 -131 16 -30 204 -218 236 -236 58
-32 139 23 139 93 0 34 -10 47 -123 160 -128 128 -144 137 -202 114z"/>
<path d="M2513 3080 c-43 -18 -53 -57 -53 -220 0 -157 5 -181 44 -212 43 -36
117 -16 145 39 7 13 11 81 11 173 0 92 -4 160 -11 173 -26 50 -80 69 -136 47z"/>
<path d="M2640 2279 c-180 -19 -260 -56 -645 -304 -169 -109 -313 -198 -320
-199 -8 0 -44 29 -82 65 -125 122 -230 186 -358 222 -88 24 -121 28 -210 28
-123 0 -207 -17 -311 -65 -86 -40 -135 -73 -229 -155 -114 -99 -220 -143 -370
-155 -51 -4 -64 -9 -87 -36 -16 -17 -28 -42 -28 -58 0 -42 35 -92 70 -99 l30
-5 0 -382 0 -381 -33 -18 c-85 -46 -88 -146 -6 -184 l38 -18 1 -217 0 -218
1043 0 1043 0 12 -34 c13 -35 60 -66 100 -66 10 0 53 22 95 50 l76 50 1275 0
1276 0 0 218 1 217 38 18 c82 37 78 149 -6 179 l-33 12 0 447 0 447 27 7 c37
9 68 48 71 88 4 62 -111 204 -231 284 -123 83 -266 125 -422 124 -93 0 -97 -1
-180 -22 -89 -21 -167 -63 -411 -219 -131 -84 -251 -161 -265 -171 l-27 -19
-73 117 c-206 330 -512 489 -869 452z"/>
</g>
</svg>
